inDegrees=no
num_controls=7
num_derivatives=13
num_iterations=156
num_multipliers=7
num_parameters=0
num_slacks=7
num_states=26
objective=0.516790
objective_accelerations=0.039547
objective_balance=0.002183
objective_effort=0.043452
objective_height=0.419981
objective_ligament=0.011628
solver_duration=2039.664367
status=Solve_Succeeded
success=true
DataType=double
version=3
OpenSimVersion=4.5
endheader
time	/jointset/ground_pelvis/pelvis_tilt/value	/jointset/ground_pelvis/pelvis_tx/value	/jointset/ground_pelvis/pelvis_ty/value	/jointset/hip_l/hip_flexion_l/value	/jointset/hip_l/hip_adduction_l/value	/jointset/hip_l/hip_rotation_l/value	/jointset/back/lumbar_extension/value	/jointset/patellofemoral_l/patellar_flexion_l/value	/jointset/knee_l/knee_flexion_l/value	/jointset/knee_l/knee_adduction_l/value	/jointset/knee_l/knee_rotation_l/value	/jointset/ankle_l/ankle_angle_l/value	/jointset/subtalar_l/subtalar_angle_l/value	/jointset/ground_pelvis/pelvis_tilt/speed	/jointset/ground_pelvis/pelvis_tx/speed	/jointset/ground_pelvis/pelvis_ty/speed	/jointset/hip_l/hip_flexion_l/speed	/jointset/hip_l/hip_adduction_l/speed	/jointset/hip_l/hip_rotation_l/speed	/jointset/back/lumbar_extension/speed	/jointset/patellofemoral_l/patellar_flexion_l/speed	/jointset/knee_l/knee_flexion_l/speed	/jointset/knee_l/knee_adduction_l/speed	/jointset/knee_l/knee_rotation_l/speed	/jointset/ankle_l/ankle_angle_l/speed	/jointset/subtalar_l/subtalar_angle_l/speed	/forceset/tau_hip_flexion_l	/forceset/tau_hip_adduction_l	/forceset/tau_hip_rotation_l	/forceset/tau_knee_flexion_l	/forceset/tau_ankle_angle_l	/forceset/tau_subtalar_angle_l	/forceset/tau_lumbar_extension	lambda_cid13_p0	lambda_cid13_p1	lambda_cid13_p2	lambda_cid13_p3	lambda_cid13_p4	lambda_cid13_p5	lambda_cid14_p0	/jointset/ground_pelvis/pelvis_tilt/accel	/jointset/ground_pelvis/pelvis_tx/accel	/jointset/ground_pelvis/pelvis_ty/accel	/jointset/hip_l/hip_flexion_l/accel	/jointset/hip_l/hip_adduction_l/accel	/jointset/hip_l/hip_rotation_l/accel	/jointset/back/lumbar_extension/accel	/jointset/patellofemoral_l/patellar_flexion_l/accel	/jointset/knee_l/knee_flexion_l/accel	/jointset/knee_l/knee_adduction_l/accel	/jointset/knee_l/knee_rotation_l/accel	/jointset/ankle_l/ankle_angle_l/accel	/jointset/subtalar_l/subtalar_angle_l/accel	gamma_cid13_p0	gamma_cid13_p1	gamma_cid13_p2	gamma_cid13_p3	gamma_cid13_p4	gamma_cid13_p5	gamma_cid14_p0
1.5	-0.01218564089517879	-0.02462367060598919	0.8692267009561898	0.6276530634526353	-0.312610539967479	-0.1780834389700482	-0.7846922082076806	0.6389746460548343	0.6389746460548315	-0.1084012508276928	-0.174530668387927	0.07198651775806109	0.006248783363983794	0.3810841657013787	0.2759855917110017	0.3411655547160466	-1.85372486125134	0.09429475241323598	-0.5354954410153557	0.8401659196407759	-1.639454370779865	-1.639454370779968	-0.1262942527223015	6.935891953968535e-06	-0.2555636716370989	0.01970348883572003	-0.2031138435789269	0.01342884576857004	-0.003874060538555591	-0.1916169323694614	0.0953143694965576	0.04733216201267625	0.279766460736931	-11.93871403277823	-20.6851457259538	5.378296610237816	-8.642338522236113	-673.3537229546897	-82.2884470220354	-19.94100252946109	-0.01334719281392687	0.6270571510599861	-0.498247848719531	-0.6259537555206161	0.3180150088864135	-0.215253672425656	1.746943047167642	-0.6313752294002476	-0.6313752294002719	-0.2964879146675288	0.03474104653535046	0.03205481798690066	0.338849285399697	1.60889900099552e-09	1.031941574497892e-06	1.454074367812448e-07	1.591144682097642e-07	8.233116798178489e-08	1.555439009640072e-07	1.005457291733083e-07
1.51	-0.008375908033766278	-0.02183273624190038	0.8726127909699288	0.6090865555934214	-0.311652151275263	-0.1834502992620121	-0.7762043974969938	0.6225506227200079	0.6225506227200049	-0.1096789226082678	-0.1745306536873159	0.06943282329106056	0.006462368450649565	0.3808106194647358	0.2821704519931875	0.3359882154724588	-1.859342852854396	0.0973745886859962	-0.5378236556917755	0.8572819515823427	-1.645130290154845	-1.645130290154854	-0.1292352548340122	-5.0930378407101e-06	-0.2551243778691198	0.02301905623595307	-0.1956877172329375	0.01262420838043643	-0.003843628429865009	-0.1890201321568387	0.0950432612634718	0.04638825454516293	0.2728441231945467	-11.83932907622462	-20.33585436574086	5.372007449516704	-8.44375689754451	-669.6577110933147	-82.15591049612739	-20.41484810184356	-0.04213642024438211	0.6096095071378373	-0.5370964442033959	-0.4946554198801104	0.3015351091834075	-0.2335813198198212	1.676792630515024	-0.5027186061762803	-0.5027186061621907	-0.2919822387748857	-0.01932591750825955	0.05752112800450156	0.3285481974395802	-7.366975592744718e-09	1.056664787578948e-06	1.769018663899026e-07	1.643432675936908e-07	7.881877861792977e-08	1.547423640601022e-07	9.760891508748397e-08
1.52	-0.004570466250951252	-0.01898087146692172	0.8759451836948271	0.5904708811067404	-0.3106632507857771	-0.1888388368916534	-0.7675488545943184	0.6060764365285066	0.606076436528503	-0.1109858195858312	-0.1745307894869554	0.06688505265610013	0.006709236757338561	0.3802259499818964	0.2881716738889712	0.3304260969478693	-1.86355818674473	0.1003971118672589	-0.5398309085509826	0.8737123580384629	-1.649486942115003	-1.649486942114918	-0.1321392921198044	-2.316415849075929e-05	-0.2543789052290972	0.02636013284036515	-0.1882615908869473	0.01181957099230548	-0.003813196321187412	-0.1864233319442148	0.09477215303038704	0.04544434707765301	0.2659217856521622	-11.74565227216653	-19.9857271522043	5.365771852224894	-8.249269562904841	-666.0598325038833	-82.04154889059517	-20.86494056659085	-0.07557184205320476	0.5903294737795591	-0.5752037049198503	-0.3454222129759247	0.3065523905869082	-0.1510613089831229	1.60981795007836	-0.3675217464359229	-0.3675217464359458	-0.2890949494838337	0.03353260836427518	0.09329059239561857	0.3439511262355032	-6.888917135140412e-09	1.054243832452268e-06	1.598246504316389e-07	1.611280025060774e-07	8.338566604904962e-08	1.595230484998436e-07	9.830065889717741e-08
1.53	-0.0007724363299978808	-0.01606996230427172	0.8792200890882149	0.5718200653112433	-0.309644466390316	-0.1942456015065891	-0.7587325498199022	0.5895652747077675	0.5895652747077673	-0.1123217802140929	-0.1745309549087586	0.06434625369413732	0.006989580305888668	0.3793267257407714	0.2939739824738752	0.3244963164107453	-1.866366286170125	0.10334796592354	-0.5414689086640602	0.8894225817052689	-1.652520691030404	-1.652520691030357	-0.135045688519951	-1.189840400167031e-05	-0.253329235455105	0.02971107467434349	-0.1807298997811382	0.01087975401162777	-0.003839198323990526	-0.1839724508266159	0.09463334663142932	0.04446909739675545	0.2589182927486142	-11.61942863991177	-19.6254762501785	5.355397336955194	-8.044246941461603	-662.5821615902328	-81.93316699574787	-21.28845416516228	-0.105101730604789	0.5697836090741825	-0.610644310491998	-0.2127099217887972	0.2874334035921354	-0.1621151329723195	1.532722304059166	-0.237612870136487	-0.2376128701420402	-0.2901619048104611	-0.01538543727081692	0.1185784291656376	0.3308751631706696	3.633945189517361e-09	1.022982198604869e-06	9.114006105852177e-08	1.48940918917453e-07	9.653678507483033e-08	1.702348431172092e-07	1.028477454708584e-07
1.54	0.003015000545451577	-0.01310210964412701	0.8824339408597547	0.5531483272985984	-0.3085965571562038	-0.1996671352767554	-0.7497629232630025	0.5730305131166654	0.5730305131166685	-0.1136865547902618	-0.1745310694722697	0.06181950608176742	0.007303475163016891	0.3781073408811405	0.2995603733879139	0.3182153725782856	-1.867742630174218	0.106222079597558	-0.5427847395972275	0.9043767145351732	-1.654206896187575	-1.654206896187565	-0.1379020817013129	-1.299249999418816e-05	-0.251968635310528	0.03307039455598871	-0.1731982086753298	0.009939937030951371	-0.003865200326792278	-0.1815215697090173	0.094494540232472	0.04349384771585954	0.2519147998450654	-11.4991271406411	-19.26382661486544	5.344386655803476	-7.842348608886208	-659.2054948992167	-81.84498463342307	-21.68262985370454	-0.1396039657544068	0.547145939606492	-0.6454363639869832	-0.05907112871540084	0.2912043141342996	-0.08662747300108367	1.458599782698068	-0.09801299478977851	-0.09801299478977696	-0.279094305726866	0.03106063826795381	0.1554766665125622	0.3456267357688768	6.933756974223801e-09	1.000571647198399e-06	5.841018720314368e-08	1.414112865116287e-07	1.031640601618666e-07	1.745646257042515e-07	1.034419869094027e-07
1.55	0.006788619055527672	-0.01007954828425328	0.8855832812876548	0.5344700941387288	-0.3075202462859652	-0.2051002019712878	-0.7406476437909769	0.5564856873183626	0.5564856873183687	-0.1150795224750229	-0.1745312006663048	0.0593079181362136	0.00765105770066535	0.3765622747507871	0.3049079532988276	0.3115995376461272	-1.86765533596083	0.1090267723596478	-0.543774450430891	0.9185398284359633	-1.654525620347705	-1.654525620347713	-0.1406776136305073	-1.567033557379076e-05	-0.2502980736642814	0.03644709286685987	-0.1656438896215886	0.00901274824448911	-0.003934724671749132	-0.1790650894836097	0.09427159628163667	0.04243153533158639	0.2448788196058432	-11.4194137875357	-18.85563992222342	5.324107238609355	-7.555696579720001	-655.9574526026692	-81.68469808798366	-22.04476655625885	-0.1700805015849232	0.5219998328186389	-0.677613005042228	0.07991869715003788	0.2729543365381231	-0.09694128338265509	1.374264478675961	0.03607488579581023	0.0360748857930869	-0.2745314393594266	-0.01630504948142981	0.1805015558404753	0.3336751480281628	1.911358354204163e-09	9.883590820825638e-07	6.710639861820174e-08	1.392478478598997e-07	1.022747324499151e-07	1.715412205172262e-07	9.948186330094183e-08
1.56	0.01054516239131826	-0.007004823962073447	0.8886648721767911	0.5158001917211499	-0.3064163179722476	-0.2105415254531229	-0.7313949137229623	0.5399446496809434	0.5399446496809509	-0.1164997952396451	-0.1745314332496964	0.05681456693555428	0.0080324039752789	0.3746923060240687	0.309992965849134	0.3046654648254881	-1.866076481716079	0.1117455682934093	-0.544436097057901	0.9318668337330126	-1.653449264011016	-1.653449264011042	-0.1433630976734492	-3.327037157396687e-05	-0.2483212863316444	0.03982314194900825	-0.1580895705678464	0.008085559458028798	-0.004004249016718184	-0.176608609258201	0.09404865233080209	0.04136922294731569	0.2378428393666212	-11.34593282831005	-18.44542839944942	5.302438784046997	-7.269299701369549	-652.8135208314483	-81.54089254035809	-22.37228884781088	-0.2045844850274072	0.4946324674850184	-0.7090839416831177	0.2392408775571243	0.2740249484686573	-0.02101463167037247	1.291378061949908	0.1810031045741585	0.1810031045741651	-0.2610847284763568	0.02807619818383946	0.2167218037906507	0.3454968900243218	1.604708401088848e-08	9.695149020663259e-07	-5.273789974914911e-09	1.257249832487028e-07	1.288302841871501e-07	1.91379399856677e-07	1.058502193879991e-07
1.57	0.01428144608784978	-0.003880621525388138	0.8916756139681155	0.4971533552954375	-0.3052858109968358	-0.2159873899667299	-0.7220133338308085	0.5234211966481283	0.5234211966481375	-0.1179470229864217	-0.1745316231584761	0.05434239128272118	0.008447269968481446	0.3725070380393861	0.314796898698772	0.2974354961630968	-1.86302919955055	0.1143414928164678	-0.5446837030378382	0.9442960704153536	-1.650998808933835	-1.650998808933825	-0.1460577314772027	-8.790832878973463e-06	-0.2460618066446024	0.04315090730701296	-0.1504232978101608	0.007013676326646292	-0.004124749088184171	-0.1743466592623616	0.09399210780437313	0.04027786427241319	0.2307332771551615	-11.23315477709396	-18.02582983326669	5.275101032304365	-6.963466690768001	-649.8468917982422	-81.41241887670238	-22.66274067794591	-0.2341096419412724	0.4656966836476851	-0.7370179732631534	0.3767118856102124	0.2501276116215687	-0.01854756042778111	1.19573532902463	0.3134195061807709	0.3134195061862838	-0.2698012631415468	-0.01105220183084214	0.2383905011292207	0.3264299537420141	5.41304650134525e-08	9.423812034245849e-07	-1.78999478578249e-07	9.800283618817122e-08	1.896919352358678e-07	2.397945598542229e-07	1.251291750944539e-07
1.58	0.01799415476718371	-0.0007098951622175462	0.8946126431438668	0.4785448396912919	-0.3041297944947146	-0.2214341133359903	-0.7125120538003019	0.506929518725463	0.5069295187254745	-0.1194204267825985	-0.1745317054785785	0.05189437631675219	0.008895416334274729	0.3699773025846005	0.3192977511461904	0.289922941710862	-1.858412317402643	0.1168474736354116	-0.5446078681886712	0.9558068614036326	-1.647094241981026	-1.647094241980978	-0.1485983075536241	-1.17526359107345e-05	-0.2434891489588303	0.0464792164671565	-0.1427570250524764	0.005941793195264348	-0.004245249159647048	-0.1720847092665231	0.09393556327794428	0.03918650559751163	0.2236237149437007	-11.12486083216921	-17.60549287038818	5.247699360064132	-6.670064192730129	-646.9615266546033	-81.3106871032609	-22.91728192432138	-0.2734779790480089	0.4340163870410947	-0.7656010996518263	0.5531608740327508	0.2560362076457121	0.04367353415043677	1.107688923137552	0.4718254796999128	0.4718254796999198	-0.2302731830099131	0.02258792983848909	0.279357403536679	0.3456056504520886	8.883906687439531e-08	9.295317197366343e-07	-3.304895379164636e-07	7.249424961764502e-08	2.545394434816736e-07	2.879610319700034e-07	1.426850898197755e-07
1.59	0.02167998319998625	0.002504238957708261	0.8974732324245537	0.4599900482487951	-0.3029493581773909	-0.2268781393349558	-0.7029006475279196	0.4904839056922085	0.4904839056922151	-0.1209190068560214	-0.1745317377356151	0.04947344892878926	0.009376573687512914	0.3671311369801938	0.3234691190589077	0.2821535763389141	-1.852273550206349	0.1192185894068635	-0.544134531673753	0.966297745850512	-1.641777644892618	-1.64177764489262	-0.1510980330463075	3.938972615004705e-06	-0.2406490024277731	0.04974449784118296	-0.1349850337664453	0.004748940773671713	-0.004397967854742399	-0.1700176795768915	0.09393308381094057	0.03800232689401206	0.2164246204704561	-11.02012942820575	-17.14263145349627	5.211702655585943	-6.279558615983218	-644.2838099362355	-81.17730214894694	-23.13850651872027	-0.2987721946023997	0.3997112419825227	-0.7887316357877457	0.6851034349782351	0.2243967961745524	0.05873776939065183	0.9932911221225577	0.5991513956707608	0.5991513956633879	-0.2567425490961125	-0.009264753942582825	0.2934680602068592	0.315738023452377	1.189676113288524e-07	9.360679563431127e-07	-4.518026718234463e-07	4.998978085498311e-08	3.247963293520984e-07	3.357899991033881e-07	1.57902591784988e-07
